<svg width="18" height="19" viewBox="0 0 18 19" fill="none" xmlns="http://www.w3.org/2000/svg">
<path d="M9 0.5C6.639 0.5 4.5 2.41475 4.5 4.7765C4.5 7.1375 6.4515 9.95675 9 14C11.5485 9.95675 13.5 7.1375 13.5 4.7765C13.5 2.41475 11.3617 0.5 9 0.5ZM9 6.5C8.17125 6.5 7.5 5.82875 7.5 5C7.5 4.17125 8.17125 3.5 9 3.5C9.82875 3.5 10.5 4.17125 10.5 5C10.5 5.82875 9.82875 6.5 9 6.5ZM17.1608 4.62425C17.1608 3.50525 16.6065 2.50175 15.7343 1.81325L16.29 1.24925C17.3363 2.075 18 3.27875 18 4.62425C18 5.96975 17.3363 7.17425 16.29 8L15.7343 7.43525C16.6065 6.7475 17.1608 5.74325 17.1608 4.62425ZM14.625 6.311L15.18 6.87425C15.8783 6.3245 16.3207 5.52125 16.3207 4.62425C16.3207 3.728 15.8783 2.924 15.18 2.37425L14.625 2.9375C15.1477 3.35075 15.4808 3.953 15.4808 4.62425C15.4808 5.2955 15.1477 5.8985 14.625 6.311ZM2.26575 7.43525L1.71 8C0.66375 7.17425 0 5.96975 0 4.62425C0 3.27875 0.66375 2.075 1.71 1.24925L2.26575 1.81325C1.3935 2.50175 0.83925 3.50525 0.83925 4.62425C0.83925 5.74325 1.3935 6.7475 2.26575 7.43525ZM2.51925 4.62425C2.51925 3.95225 2.8515 3.35075 3.375 2.9375L2.82 2.37425C2.12175 2.924 1.67925 3.728 1.67925 4.62425C1.67925 5.52125 2.12175 6.3245 2.82 6.87425L3.375 6.311C2.85225 5.8985 2.51925 5.29625 2.51925 4.62425ZM15 15.5C15 17.1567 12.3142 18.5 9 18.5C5.68575 18.5 3 17.1567 3 15.5C3 14.2985 4.416 13.265 6.456 12.7858L7.3215 14.1537C7.02075 14.2048 6.717 14.255 6.438 14.3353C3.954 15.047 3.84825 15.917 6.42225 16.6618C7.98825 17.114 10.005 17.1155 11.5778 16.661C14.292 15.8758 13.9507 14.9548 11.3767 14.2858C11.1547 14.228 10.911 14.1972 10.6747 14.1575L11.5417 12.7865C13.584 13.265 15 14.2985 15 15.5Z" fill="#727272"/>
</svg>
