<svg width="18" height="19" viewBox="0 0 18 19" fill="none" xmlns="http://www.w3.org/2000/svg">
<path d="M3.85714 1.625V2.75H1.92857C0.863839 2.75 0 3.50586 0 4.4375V6.125H18V4.4375C18 3.50586 17.1362 2.75 16.0714 2.75H14.1429V1.625C14.1429 1.00273 13.5683 0.5 12.8571 0.5C12.146 0.5 11.5714 1.00273 11.5714 1.625V2.75H6.42857V1.625C6.42857 1.00273 5.85402 0.5 5.14286 0.5C4.4317 0.5 3.85714 1.00273 3.85714 1.625ZM18 7.25H0V16.8125C0 17.7441 0.863839 18.5 1.92857 18.5H16.0714C17.1362 18.5 18 17.7441 18 16.8125V7.25Z" fill="#727272"/>
</svg>
