<svg width="18" height="17" viewBox="0 0 18 17" fill="none" xmlns="http://www.w3.org/2000/svg">
<path d="M3.6 3.71875C3.22594 3.71875 2.925 3.34258 2.925 2.875C2.925 2.40742 3.22594 2.03125 3.6 2.03125C3.97406 2.03125 4.275 2.40742 4.275 2.875C4.275 3.34258 3.97406 3.71875 3.6 3.71875ZM4.5 5.45195C5.29594 5.01953 5.85 4.02813 5.85 2.875C5.85 1.32109 4.84312 0.0625 3.6 0.0625C2.35687 0.0625 1.35 1.32109 1.35 2.875C1.35 4.02813 1.90406 5.01953 2.7 5.45195V7.375H0.9C0.402187 7.375 0 7.87773 0 8.5C0 9.12227 0.402187 9.625 0.9 9.625H8.1V11.548C7.30406 11.9805 6.75 12.9719 6.75 14.125C6.75 15.6789 7.75687 16.9375 9 16.9375C10.2431 16.9375 11.25 15.6789 11.25 14.125C11.25 12.9719 10.6959 11.9805 9.9 11.548V9.625H17.1C17.5978 9.625 18 9.12227 18 8.5C18 7.87773 17.5978 7.375 17.1 7.375H15.3V5.45195C16.0959 5.01953 16.65 4.02813 16.65 2.875C16.65 1.32109 15.6431 0.0625 14.4 0.0625C13.1569 0.0625 12.15 1.32109 12.15 2.875C12.15 4.02813 12.7041 5.01953 13.5 5.45195V7.375H4.5V5.45195ZM15.075 2.875C15.075 3.34258 14.7741 3.71875 14.4 3.71875C14.0259 3.71875 13.725 3.34258 13.725 2.875C13.725 2.40742 14.0259 2.03125 14.4 2.03125C14.7741 2.03125 15.075 2.40742 15.075 2.875ZM9 14.9688C8.62594 14.9688 8.325 14.5926 8.325 14.125C8.325 13.6574 8.62594 13.2812 9 13.2812C9.37406 13.2812 9.675 13.6574 9.675 14.125C9.675 14.5926 9.37406 14.9688 9 14.9688Z" fill="#727272"/>
</svg>
