<svg width="18" height="15" viewBox="0 0 18 15" fill="none" xmlns="http://www.w3.org/2000/svg">
<path d="M1.6875 0.75C0.755859 0.75 0 1.50586 0 2.4375C0 2.96836 0.249609 3.46758 0.675 3.7875L8.325 9.525C8.72578 9.82383 9.27422 9.82383 9.675 9.525L17.325 3.7875C17.7504 3.46758 18 2.96836 18 2.4375C18 1.50586 17.2441 0.75 16.3125 0.75H1.6875ZM0 4.6875V12C0 13.241 1.00898 14.25 2.25 14.25H15.75C16.991 14.25 18 13.241 18 12V4.6875L10.35 10.425C9.54844 11.0262 8.45156 11.0262 7.65 10.425L0 4.6875Z" fill="#727272"/>
</svg>
