<svg width="18" height="19" viewBox="0 0 18 19" fill="none" xmlns="http://www.w3.org/2000/svg">
<path d="M5.79727 1.3649C5.52656 0.710998 4.81289 0.362951 4.13086 0.549279L1.03711 1.39303C0.425391 1.56178 0 2.11725 0 2.75006C0 11.4477 7.05234 18.5001 15.75 18.5001C16.3828 18.5001 16.9383 18.0747 17.107 17.463L17.9508 14.3692C18.1371 13.6872 17.7891 12.9735 17.1352 12.7028L13.7602 11.2965C13.1871 11.0575 12.5227 11.2227 12.1324 11.7044L10.7121 13.4376C8.23711 12.2669 6.2332 10.263 5.0625 7.78795L6.7957 6.37115C7.27734 5.9774 7.44258 5.31647 7.20352 4.74342L5.79727 1.36842V1.3649Z" fill="#727272"/>
</svg>
