<svg width="18" height="19" viewBox="0 0 18 19" fill="none" xmlns="http://www.w3.org/2000/svg">
<path d="M16.4004 3.44268L9.65039 0.630178C9.44478 0.544882 9.22436 0.500977 9.00176 0.500977C8.77915 0.500977 8.55874 0.544882 8.35313 0.630178L1.60312 3.44268C0.973828 3.70283 0.5625 4.31807 0.5625 5.0001C0.5625 11.9786 4.58789 16.8021 8.34961 18.37C8.76445 18.5423 9.23203 18.5423 9.64687 18.37C12.6598 17.1149 17.4375 12.7802 17.4375 5.0001C17.4375 4.31807 17.0262 3.70283 16.4004 3.44268ZM9.00352 16.1903L9 2.7958L15.184 5.37276C15.068 10.6954 12.2977 14.5521 9.00352 16.1903Z" fill="#727272"/>
</svg>
