<svg width="14" height="14" viewBox="0 0 14 14" fill="none" xmlns="http://www.w3.org/2000/svg">
<path d="M12.25 0H1.75C0.783854 0 0 0.587891 0 1.3125V12.6875C0 13.4121 0.783854 14 1.75 14H12.25C13.2161 14 14 13.4121 14 12.6875V1.3125C14 0.587891 13.2161 0 12.25 0ZM5.25 0.875H8.75C9.07083 0.875 9.33333 1.07187 9.33333 1.3125C9.33333 1.55313 9.07083 1.75 8.75 1.75H5.25C4.92917 1.75 4.66667 1.55313 4.66667 1.3125C4.66667 1.07187 4.92917 0.875 5.25 0.875ZM7 4.375C8.28698 4.375 9.33333 5.15977 9.33333 6.125C9.33333 7.09023 8.28698 7.875 7 7.875C5.71302 7.875 4.66667 7.09023 4.66667 6.125C4.66667 5.15977 5.71302 4.375 7 4.375ZM11.0833 10.85C11.0833 11.1398 10.7187 11.375 10.2667 11.375H3.73333C3.28125 11.375 2.91667 11.1398 2.91667 10.85V10.325C2.91667 9.45547 4.01406 8.75 5.36667 8.75H5.54896C5.9974 8.88945 6.48594 8.96875 7 8.96875C7.51406 8.96875 8.00625 8.88945 8.45104 8.75H8.63333C9.98594 8.75 11.0833 9.45547 11.0833 10.325V10.85Z" fill="#727272"/>
</svg>
