<svg width="14" height="14" viewBox="0 0 14 14" fill="none" xmlns="http://www.w3.org/2000/svg">
<path d="M5 2.1875C5 1.46289 5.67188 0.875 6.5 0.875H7.5C8.32812 0.875 9 1.46289 9 2.1875V11.8125C9 12.5371 8.32812 13.125 7.5 13.125H6.5C5.67188 13.125 5 12.5371 5 11.8125V2.1875ZM0 7.4375C0 6.71289 0.671875 6.125 1.5 6.125H2.5C3.32812 6.125 4 6.71289 4 7.4375V11.8125C4 12.5371 3.32812 13.125 2.5 13.125H1.5C0.671875 13.125 0 12.5371 0 11.8125V7.4375ZM11.5 2.625H12.5C13.3281 2.625 14 3.21289 14 3.9375V11.8125C14 12.5371 13.3281 13.125 12.5 13.125H11.5C10.6719 13.125 10 12.5371 10 11.8125V3.9375C10 3.21289 10.6719 2.625 11.5 2.625Z" fill="#727272"/>
</svg>
