<svg width="14" height="14" viewBox="0 0 14 14" fill="none" xmlns="http://www.w3.org/2000/svg">
<path d="M0 0.65625C0 0.292578 0.260069 0 0.583333 0H1.68924C2.22396 0 2.69792 0.35 2.9191 0.875H12.9087C13.5479 0.875 14.0146 1.55859 13.8469 2.25312L12.8503 6.41758C12.6438 7.27617 11.951 7.875 11.1611 7.875H4.14896L4.28021 8.6543C4.33368 8.96328 4.57431 9.1875 4.85382 9.1875H11.8611C12.1844 9.1875 12.4444 9.48008 12.4444 9.84375C12.4444 10.2074 12.1844 10.5 11.8611 10.5H4.85382C4.01285 10.5 3.29097 9.82734 3.13542 8.90039L1.88125 1.49023C1.86424 1.38633 1.78403 1.3125 1.68924 1.3125H0.583333C0.260069 1.3125 0 1.01992 0 0.65625ZM3.11111 12.6875C3.11111 12.5151 3.14129 12.3445 3.19992 12.1852C3.25855 12.026 3.34448 11.8813 3.45282 11.7594C3.56115 11.6375 3.68977 11.5409 3.83131 11.4749C3.97286 11.4089 4.12457 11.375 4.27778 11.375C4.43099 11.375 4.5827 11.4089 4.72424 11.4749C4.86579 11.5409 4.9944 11.6375 5.10274 11.7594C5.21107 11.8813 5.29701 12.026 5.35564 12.1852C5.41427 12.3445 5.44444 12.5151 5.44444 12.6875C5.44444 12.8599 5.41427 13.0305 5.35564 13.1898C5.29701 13.349 5.21107 13.4937 5.10274 13.6156C4.9944 13.7375 4.86579 13.8341 4.72424 13.9001C4.5827 13.9661 4.43099 14 4.27778 14C4.12457 14 3.97286 13.9661 3.83131 13.9001C3.68977 13.8341 3.56115 13.7375 3.45282 13.6156C3.34448 13.4937 3.25855 13.349 3.19992 13.1898C3.14129 13.0305 3.11111 12.8599 3.11111 12.6875ZM11.2778 11.375C11.5872 11.375 11.8839 11.5133 12.1027 11.7594C12.3215 12.0056 12.4444 12.3394 12.4444 12.6875C12.4444 13.0356 12.3215 13.3694 12.1027 13.6156C11.8839 13.8617 11.5872 14 11.2778 14C10.9684 14 10.6716 13.8617 10.4528 13.6156C10.234 13.3694 10.1111 13.0356 10.1111 12.6875C10.1111 12.3394 10.234 12.0056 10.4528 11.7594C10.6716 11.5133 10.9684 11.375 11.2778 11.375Z" fill="#727272"/>
</svg>
