<svg width="14" height="14" viewBox="0 0 14 14" fill="none" xmlns="http://www.w3.org/2000/svg">
<path d="M2.33333 0C1.04635 0 0 0.784766 0 1.75V12.25C0 13.2152 1.04635 14 2.33333 14H11.6667C12.9536 14 14 13.2152 14 12.25V4.375H9.33333C8.68802 4.375 8.16667 3.98398 8.16667 3.5V0H2.33333ZM9.33333 0V3.5H14L9.33333 0ZM4.08333 7H9.91667C10.2375 7 10.5 7.19688 10.5 7.4375C10.5 7.67812 10.2375 7.875 9.91667 7.875H4.08333C3.7625 7.875 3.5 7.67812 3.5 7.4375C3.5 7.19688 3.7625 7 4.08333 7ZM4.08333 8.75H9.91667C10.2375 8.75 10.5 8.94687 10.5 9.1875C10.5 9.42813 10.2375 9.625 9.91667 9.625H4.08333C3.7625 9.625 3.5 9.42813 3.5 9.1875C3.5 8.94687 3.7625 8.75 4.08333 8.75ZM4.08333 10.5H9.91667C10.2375 10.5 10.5 10.6969 10.5 10.9375C10.5 11.1781 10.2375 11.375 9.91667 11.375H4.08333C3.7625 11.375 3.5 11.1781 3.5 10.9375C3.5 10.6969 3.7625 10.5 4.08333 10.5Z" fill="#727272"/>
</svg>
