<svg width="14" height="14" viewBox="0 0 14 14" fill="none" xmlns="http://www.w3.org/2000/svg">
<path d="M7.06198 7.41563C7.38281 7.41563 7.62708 7.48945 7.80208 7.63711C8.15208 7.93516 8.15938 8.53125 7.79479 8.84297C7.61615 8.99609 7.36094 9.07539 7.02552 9.07539H6.04479V7.41563H7.06198ZM13.7448 2.87109L10.1719 0.191406C10.0078 0.0683594 9.78542 0 9.55208 0H9.33333V3.5H14V3.3332C14 3.16094 13.9089 2.99414 13.7448 2.87109ZM8.16667 3.71875V0H0.875C0.390104 0 0 0.292578 0 0.65625V13.3438C0 13.7074 0.390104 14 0.875 14H13.125C13.6099 14 14 13.7074 14 13.3438V4.375H9.04167C8.56042 4.375 8.16667 4.07969 8.16667 3.71875ZM10.099 8.23594C10.099 10.7051 6.86146 10.3578 6.04844 10.3578V11.9219C6.04844 12.1023 5.85156 12.25 5.61094 12.25H4.48802C4.2474 12.25 4.05052 12.1023 4.05052 11.9219V6.45859C4.05052 6.27812 4.2474 6.13047 4.48802 6.13047H7.44115C9.06354 6.13047 10.099 7.02734 10.099 8.23594Z" fill="#727272"/>
</svg>
