<svg width="16" height="14" viewBox="0 0 16 14" fill="none" xmlns="http://www.w3.org/2000/svg">
<path d="M8.8 3.5C8.8 5.4332 7.3675 7 5.6 7C3.8325 7 2.4 5.4332 2.4 3.5C2.4 1.5668 3.8325 0 5.6 0C7.3675 0 8.8 1.5668 8.8 3.5ZM0 13.1879C0 10.4945 1.995 8.3125 4.4575 8.3125H6.7425C9.205 8.3125 11.2 10.4945 11.2 13.1879C11.2 13.6363 10.8675 14 10.4575 14H0.7425C0.3325 14 0 13.6363 0 13.1879ZM15.2325 14H11.785C11.92 13.743 12 13.4449 12 13.125V12.9062C12 11.2465 11.3225 9.75625 10.255 8.75547C10.315 8.75274 10.3725 8.75 10.4325 8.75H11.9675C14.195 8.75 16 10.7242 16 13.1605C16 13.6254 15.655 14 15.2325 14ZM10.8 7C10.025 7 9.325 6.65547 8.8175 6.10039C9.31 5.37305 9.6 4.47344 9.6 3.5C9.6 2.76719 9.435 2.07539 9.1425 1.46836C9.6075 1.09648 10.18 0.875 10.8 0.875C12.3475 0.875 13.6 2.24492 13.6 3.9375C13.6 5.63008 12.3475 7 10.8 7Z" fill="#727272"/>
</svg>
