<svg width="14" height="14" viewBox="0 0 14 14" fill="none" xmlns="http://www.w3.org/2000/svg">
    <path d="M4.07695 1.77188L3.79258 2.625H1.75C0.784766 2.625 0 3.40977 0 4.375V11.375C0 12.3402 0.784766 13.125 1.75 13.125H12.25C13.2152 13.125 14 12.3402 14 11.375V4.375C14 3.40977 13.2152 2.625 12.25 2.625H10.2074L9.92305 1.77188C9.74531 1.23594 9.24492 0.875 8.67891 0.875H5.32109C4.75508 0.875 4.25469 1.23594 4.07695 1.77188ZM7 10.5C5.55078 10.5 4.375 9.32422 4.375 7.875C4.375 6.42578 5.55078 5.25 7 5.25C8.44922 5.25 9.625 6.42578 9.625 7.875C9.625 9.32422 8.44922 10.5 7 10.5Z" fill="#FF8E96"/>
</svg>
    