<svg width="14" height="14" viewBox="0 0 14 14" fill="none" xmlns="http://www.w3.org/2000/svg">
<path d="M1.55556 0.875C0.697569 0.875 0 1.65977 0 2.625V3.5H14V2.625C14 1.65977 13.3024 0.875 12.4444 0.875H1.55556ZM14 6.125H0V11.375C0 12.3402 0.697569 13.125 1.55556 13.125H12.4444C13.3024 13.125 14 12.3402 14 11.375V6.125ZM2.72222 9.625H4.27778C4.49167 9.625 4.66667 9.82187 4.66667 10.0625C4.66667 10.3031 4.49167 10.5 4.27778 10.5H2.72222C2.50833 10.5 2.33333 10.3031 2.33333 10.0625C2.33333 9.82187 2.50833 9.625 2.72222 9.625ZM5.44444 10.0625C5.44444 9.82187 5.61944 9.625 5.83333 9.625H8.94444C9.15833 9.625 9.33333 9.82187 9.33333 10.0625C9.33333 10.3031 9.15833 10.5 8.94444 10.5H5.83333C5.61944 10.5 5.44444 10.3031 5.44444 10.0625Z" fill="#727272"/>
</svg>
