<svg width="14" height="14" viewBox="0 0 14 14" fill="none" xmlns="http://www.w3.org/2000/svg">
<path d="M2.40625 0C2.04258 0 1.75 0.292578 1.75 0.65625C1.75 1.71992 2.38984 2.28047 2.81914 2.65508L2.84922 2.68242C3.29492 3.0707 3.5 3.27852 3.5 3.71875C3.5 4.08242 3.79258 4.375 4.15625 4.375C4.51992 4.375 4.8125 4.08242 4.8125 3.71875C4.8125 2.65508 4.17266 2.09453 3.74336 1.71992L3.71328 1.69258C3.26758 1.3043 3.0625 1.09648 3.0625 0.65625C3.0625 0.292578 2.76992 0 2.40625 0ZM0.875 5.25C0.391016 5.25 0 5.64102 0 6.125V11.375C0 12.8242 1.17578 14 2.625 14H7.875C9.32422 14 10.5 12.8242 10.5 11.375H10.9375C12.6301 11.375 14 10.0051 14 8.3125C14 6.61992 12.6301 5.25 10.9375 5.25H9.625H0.875ZM10.5 7H10.9375C11.6621 7 12.25 7.58789 12.25 8.3125C12.25 9.03711 11.6621 9.625 10.9375 9.625H10.5V7ZM6.125 0.65625C6.125 0.292578 5.83242 0 5.46875 0C5.10508 0 4.8125 0.292578 4.8125 0.65625C4.8125 1.71992 5.45234 2.28047 5.88164 2.65508L5.91172 2.68242C6.35742 3.0707 6.5625 3.27852 6.5625 3.71875C6.5625 4.08242 6.85508 4.375 7.21875 4.375C7.58242 4.375 7.875 4.08242 7.875 3.71875C7.875 2.65508 7.23516 2.09453 6.80586 1.71992L6.77578 1.69258C6.33008 1.3043 6.125 1.09648 6.125 0.65625Z" fill="#44A36A"/>
</svg>
