<svg width="18" height="16" viewBox="0 0 18 16" fill="none" xmlns="http://www.w3.org/2000/svg">
<path d="M8.99922 0.125C6.47422 0.125 4.45234 1.41875 2.98047 2.95859C1.51797 4.48438 0.539844 6.3125 0.0773437 7.56758C-0.0257813 7.84531 -0.0257813 8.15469 0.0773437 8.43242C0.539844 9.6875 1.51797 11.5156 2.98047 13.0414C4.45234 14.5813 6.47422 15.875 8.99922 15.875C11.5242 15.875 13.5461 14.5813 15.018 13.0414C16.4805 11.5121 17.4586 9.6875 17.9242 8.43242C18.0273 8.15469 18.0273 7.84531 17.9242 7.56758C17.4586 6.3125 16.4805 4.48438 15.018 2.95859C13.5461 1.41875 11.5242 0.125 8.99922 0.125ZM13.4992 8C13.4992 10.7949 11.4836 13.0625 8.99922 13.0625C6.51484 13.0625 4.49922 10.7949 4.49922 8C4.49922 5.20508 6.51484 2.9375 8.99922 2.9375C11.4836 2.9375 13.4992 5.20508 13.4992 8ZM8.99922 5.75C8.99922 6.99102 8.10234 8 6.99922 8C6.63984 8 6.30234 7.89453 6.01172 7.70469C6.00547 7.80313 5.99922 7.89805 5.99922 8C5.99922 9.86328 7.34297 11.375 8.99922 11.375C10.6555 11.375 11.9992 9.86328 11.9992 8C11.9992 6.13672 10.6555 4.625 8.99922 4.625C8.91172 4.625 8.82422 4.62852 8.73672 4.63906C8.90234 4.96602 8.99922 5.3457 8.99922 5.75Z" fill="#727272"/>
</svg>
