<svg width="16" height="18" viewBox="0 0 16 18" fill="none" xmlns="http://www.w3.org/2000/svg">
<path d="M12.9297 2.946C12.0719 2.08818 10.6797 2.08818 9.82187 2.946L3.35313 9.41475C1.87305 10.8948 1.87305 13.2925 3.35313 14.7726C4.8332 16.2526 7.23086 16.2526 8.71094 14.7726L14.0547 9.42881C14.4379 9.04561 15.0637 9.04561 15.4469 9.42881C15.8301 9.81201 15.8301 10.4378 15.4469 10.821L10.1031 16.1647C7.85312 18.4147 4.21094 18.4147 1.96094 16.1647C-0.289062 13.9147 -0.289062 10.2726 1.96094 8.02256L8.42969 1.55381C10.0574 -0.0739258 12.6941 -0.0739258 14.3219 1.55381C15.9496 3.18154 15.9496 5.81826 14.3219 7.446L8.13437 13.6335C7.12891 14.639 5.49766 14.639 4.49219 13.6335C3.48672 12.628 3.48672 10.9968 4.49219 9.99131L9.55469 4.92881C9.93789 4.54561 10.5637 4.54561 10.9469 4.92881C11.3301 5.31201 11.3301 5.93779 10.9469 6.321L5.88438 11.3835C5.64883 11.619 5.64883 12.0058 5.88438 12.2413C6.11992 12.4769 6.50664 12.4769 6.74219 12.2413L12.9297 6.05381C13.7875 5.196 13.7875 3.80381 12.9297 2.946Z" fill="#727272"/>
</svg>
