<svg width="14" height="16" viewBox="0 0 14 16" fill="none" xmlns="http://www.w3.org/2000/svg">
<path d="M5 1.25C5 0.627734 5.50273 0.125 6.125 0.125H12.875C13.4973 0.125 14 0.627734 14 1.25C14 1.87227 13.4973 2.375 12.875 2.375H10.8113L6.125 13.625H8.375C8.99727 13.625 9.5 14.1277 9.5 14.75C9.5 15.3723 8.99727 15.875 8.375 15.875H1.625C1.00273 15.875 0.5 15.3723 0.5 14.75C0.5 14.1277 1.00273 13.625 1.625 13.625H3.68867L8.375 2.375H6.125C5.50273 2.375 5 1.87227 5 1.25Z" fill="#727272"/>
</svg>
