<svg width="14" height="16" viewBox="0 0 14 16" fill="none" xmlns="http://www.w3.org/2000/svg">
<path d="M0 1.25C0 0.627734 0.502734 0.125 1.125 0.125H2.8125H3.375H7.875C10.3605 0.125 12.375 2.13945 12.375 4.625C12.375 5.72539 11.9777 6.73789 11.3203 7.51836C12.6246 8.30586 13.5 9.73672 13.5 11.375C13.5 13.8605 11.4855 15.875 9 15.875H3.375H2.8125H1.125C0.502734 15.875 0 15.3723 0 14.75C0 14.1277 0.502734 13.625 1.125 13.625H1.6875V8V2.375H1.125C0.502734 2.375 0 1.87227 0 1.25ZM7.875 6.875C9.11602 6.875 10.125 5.86602 10.125 4.625C10.125 3.38398 9.11602 2.375 7.875 2.375H3.9375V6.875H7.875ZM3.9375 9.125V13.625H9C10.241 13.625 11.25 12.616 11.25 11.375C11.25 10.134 10.241 9.125 9 9.125H7.875H3.9375Z" fill="#727272"/>
</svg>
