<svg width="16" height="16" viewBox="0 0 16 16" fill="none" xmlns="http://www.w3.org/2000/svg">
<path d="M0.5625 1.25C0.5625 0.627734 1.06523 0.125 1.6875 0.125H5.0625C5.68477 0.125 6.1875 0.627734 6.1875 1.25C6.1875 1.87227 5.68477 2.375 5.0625 2.375H4.5V6.875C4.5 8.73828 6.01172 10.25 7.875 10.25C9.73828 10.25 11.25 8.73828 11.25 6.875V2.375H10.6875C10.0652 2.375 9.5625 1.87227 9.5625 1.25C9.5625 0.627734 10.0652 0.125 10.6875 0.125H14.0625C14.6848 0.125 15.1875 0.627734 15.1875 1.25C15.1875 1.87227 14.6848 2.375 14.0625 2.375H13.5V6.875C13.5 9.98281 10.9828 12.5 7.875 12.5C4.76719 12.5 2.25 9.98281 2.25 6.875V2.375H1.6875C1.06523 2.375 0.5625 1.87227 0.5625 1.25ZM0 14.75C0 14.1277 0.502734 13.625 1.125 13.625H14.625C15.2473 13.625 15.75 14.1277 15.75 14.75C15.75 15.3723 15.2473 15.875 14.625 15.875H1.125C0.502734 15.875 0 15.3723 0 14.75Z" fill="#727272"/>
</svg>
