<svg width="14" height="14" viewBox="0 0 14 14" fill="none" xmlns="http://www.w3.org/2000/svg">
<path d="M7 0C5.16367 0 3.5 1.48925 3.5 3.32617C3.5 5.1625 5.01783 7.35525 7 10.5C8.98217 7.35525 10.5 5.1625 10.5 3.32617C10.5 1.48925 8.83692 0 7 0ZM7 4.66667C6.35542 4.66667 5.83333 4.14458 5.83333 3.5C5.83333 2.85542 6.35542 2.33333 7 2.33333C7.64458 2.33333 8.16667 2.85542 8.16667 3.5C8.16667 4.14458 7.64458 4.66667 7 4.66667ZM13.3472 3.20775C13.3472 2.33742 12.9162 1.55692 12.2378 1.02142L12.67 0.58275C13.4837 1.225 14 2.16125 14 3.20775C14 4.25425 13.4837 5.19108 12.67 5.83333L12.2378 5.39408C12.9162 4.85917 13.3472 4.07808 13.3472 3.20775ZM11.375 4.51967L11.8067 4.95775C12.3497 4.53017 12.6939 3.90542 12.6939 3.20775C12.6939 2.51067 12.3497 1.88533 11.8067 1.45775L11.375 1.89583C11.7816 2.21725 12.0406 2.68567 12.0406 3.20775C12.0406 3.72983 11.7816 4.19883 11.375 4.51967ZM1.76225 5.39408L1.33 5.83333C0.51625 5.19108 0 4.25425 0 3.20775C0 2.16125 0.51625 1.225 1.33 0.58275L1.76225 1.02142C1.08383 1.55692 0.65275 2.33742 0.65275 3.20775C0.65275 4.07808 1.08383 4.85917 1.76225 5.39408ZM1.95942 3.20775C1.95942 2.68508 2.21783 2.21725 2.625 1.89583L2.19333 1.45775C1.65025 1.88533 1.30608 2.51067 1.30608 3.20775C1.30608 3.90542 1.65025 4.53017 2.19333 4.95775L2.625 4.51967C2.21842 4.19883 1.95942 3.73042 1.95942 3.20775ZM11.6667 11.6667C11.6667 12.9552 9.57775 14 7 14C4.42225 14 2.33333 12.9552 2.33333 11.6667C2.33333 10.7322 3.43467 9.92833 5.02133 9.55558L5.6945 10.6196C5.46058 10.6592 5.22433 10.6983 5.00733 10.7607C3.07533 11.3143 2.99308 11.991 4.99508 12.5702C6.21308 12.922 7.78167 12.9232 9.00492 12.5697C11.116 11.9589 10.8506 11.2426 8.84858 10.7222C8.67592 10.6773 8.48633 10.6534 8.30258 10.6225L8.97692 9.55617C10.5653 9.92833 11.6667 10.7322 11.6667 11.6667Z" fill="#E75EA0"/>
</svg>
