<svg width="14" height="12" viewBox="0 0 14 12" fill="none" xmlns="http://www.w3.org/2000/svg">
<path d="M0 2.5C0 1.53477 0.697569 0.75 1.55556 0.75H7.77778C8.63576 0.75 9.33333 1.53477 9.33333 2.5V9.5C9.33333 10.4652 8.63576 11.25 7.77778 11.25H1.55556C0.697569 11.25 0 10.4652 0 9.5V2.5ZM13.5892 1.72891C13.842 1.88203 14 2.17734 14 2.5V9.5C14 9.82266 13.842 10.118 13.5892 10.2711C13.3365 10.4242 13.0302 10.4078 12.7896 10.2273L10.4563 8.47734L10.1111 8.21758V7.75V4.25V3.78242L10.4563 3.52266L12.7896 1.77266C13.0278 1.59492 13.334 1.57578 13.5892 1.72891Z" fill="#44A36A"/>
</svg>
