<svg width="11" height="9" viewBox="0 0 11 9" fill="none" xmlns="http://www.w3.org/2000/svg">
<path d="M5.78571 0.675C5.78571 0.301641 5.44098 0 5.01429 0C4.58759 0 4.24286 0.301641 4.24286 0.675V3.7125H0.771429C0.344732 3.7125 0 4.01414 0 4.3875C0 4.76086 0.344732 5.0625 0.771429 5.0625H4.24286V8.1C4.24286 8.47336 4.58759 8.775 5.01429 8.775C5.44098 8.775 5.78571 8.47336 5.78571 8.1V5.0625H9.25714C9.68384 5.0625 10.0286 4.76086 10.0286 4.3875C10.0286 4.01414 9.68384 3.7125 9.25714 3.7125H5.78571V0.675Z" fill="#E95F8B"/>
</svg>
