<svg width="14" height="14" viewBox="0 0 14 14" fill="none" xmlns="http://www.w3.org/2000/svg">
<path d="M10.8784 1.66247L11.2343 3.91413L13.2818 4.9583L12.2493 6.99997L13.2876 9.04163L11.2226 10.0858L10.8668 12.3375L8.5976 11.9816L6.98177 13.5916L5.3601 11.9583L3.10844 12.3316L2.74677 10.0625L0.710938 9.02413L1.74927 6.98247L0.716771 4.9583L2.76427 3.90247L3.1201 1.6683L5.3776 2.04163L6.99927 0.402466L8.6151 2.0183L10.8784 1.66247ZM5.54094 4.0833C5.30887 4.0833 5.08631 4.17549 4.92222 4.33958C4.75812 4.50367 4.66594 4.72623 4.66594 4.9583C4.66594 5.19036 4.75812 5.41292 4.92222 5.57702C5.08631 5.74111 5.30887 5.8333 5.54094 5.8333C5.773 5.8333 5.99556 5.74111 6.15966 5.57702C6.32375 5.41292 6.41594 5.19036 6.41594 4.9583C6.41594 4.72623 6.32375 4.50367 6.15966 4.33958C5.99556 4.17549 5.773 4.0833 5.54094 4.0833ZM8.4576 8.16663C8.22554 8.16663 8.00298 8.25882 7.83889 8.42291C7.67479 8.58701 7.5826 8.80957 7.5826 9.04163C7.5826 9.2737 7.67479 9.49626 7.83889 9.66035C8.00298 9.82444 8.22554 9.91663 8.4576 9.91663C8.68967 9.91663 8.91223 9.82444 9.07632 9.66035C9.24042 9.49626 9.3326 9.2737 9.3326 9.04163C9.3326 8.80957 9.24042 8.58701 9.07632 8.42291C8.91223 8.25882 8.68967 8.16663 8.4576 8.16663ZM4.9051 9.91663L9.91594 4.9058L9.09344 4.0833L4.0826 9.09413L4.9051 9.91663Z" fill="#44A36A"/>
</svg>
