<svg width="18" height="18" viewBox="0 0 18 18" fill="none" xmlns="http://www.w3.org/2000/svg">
    <path
        d="M17.5117 0.197009C17.8668 0.443103 18.0531 0.868494 17.9863 1.29388L15.7363 15.9189C15.6836 16.2599 15.4761 16.5587 15.1738 16.7275C14.8715 16.8962 14.5094 16.9173 14.1894 16.7837L9.98474 15.0365L7.57654 17.6415C7.26365 17.9826 6.77146 18.0951 6.33904 17.9263C5.90662 17.7576 5.62537 17.3392 5.62537 16.8751V13.9361C5.62537 13.7954 5.6781 13.6619 5.77302 13.5599L11.6652 7.12982C11.8691 6.90834 11.8621 6.56732 11.6511 6.35638C11.4402 6.14545 11.0992 6.13138 10.8777 6.33178L3.72693 12.6845L0.622632 11.1306C0.249976 10.9443 0.010913 10.5716 0.000366172 10.1568C-0.0101807 9.74193 0.207788 9.35521 0.566382 9.14779L16.3164 0.147791C16.6926 -0.0666624 17.1566 -0.0455687 17.5117 0.197009Z"
        fill="#FF8E96" />
</svg>
    