<svg width="14" height="13" viewBox="0 0 14 13" fill="none" xmlns="http://www.w3.org/2000/svg">
    <path d="M6.99914 10.7062L3.88664 12.5812C3.74914 12.6687 3.60539 12.7062 3.45539 12.6937C3.30539 12.6812 3.17414 12.6312 3.06164 12.5437C2.94914 12.4562 2.86164 12.3469 2.79914 12.2159C2.73664 12.0844 2.72414 11.9374 2.76164 11.7749L3.58664 8.23115L0.830387 5.8499C0.705387 5.7374 0.627387 5.60915 0.596387 5.46515C0.564887 5.32165 0.574137 5.18115 0.624137 5.04365C0.674137 4.90615 0.749137 4.79365 0.849137 4.70615C0.949137 4.61865 1.08664 4.5624 1.26164 4.5374L4.89914 4.21865L6.30539 0.881153C6.36789 0.731153 6.46489 0.618652 6.59639 0.543652C6.72739 0.468652 6.86164 0.431152 6.99914 0.431152C7.13664 0.431152 7.27114 0.468652 7.40264 0.543652C7.53364 0.618652 7.63039 0.731153 7.69289 0.881153L9.09914 4.21865L12.7366 4.5374C12.9116 4.5624 13.0491 4.61865 13.1491 4.70615C13.2491 4.79365 13.3241 4.90615 13.3741 5.04365C13.4241 5.18115 13.4336 5.32165 13.4026 5.46515C13.3711 5.60915 13.2929 5.7374 13.1679 5.8499L10.4116 8.23115L11.2366 11.7749C11.2741 11.9374 11.2616 12.0844 11.1991 12.2159C11.1366 12.3469 11.0491 12.4562 10.9366 12.5437C10.8241 12.6312 10.6929 12.6812 10.5429 12.6937C10.3929 12.7062 10.2491 12.6687 10.1116 12.5812L6.99914 10.7062Z" fill="#F6B445"/>
    </svg>    