<svg width="18" height="18" viewBox="0 0 18 18" fill="none" xmlns="http://www.w3.org/2000/svg">
<path d="M0 2.81241V8.06827C0 8.66593 0.269196 9.23898 0.751339 9.66085L7.82277 15.8484C8.82723 16.7273 10.4545 16.7273 11.4589 15.8484L16.8228 11.155C17.8272 10.2761 17.8272 8.85226 16.8228 7.97335L9.75134 1.78585C9.2692 1.36398 8.61429 1.12843 7.93125 1.12843H1.92857C0.863839 1.12491 0 1.88077 0 2.81241ZM4.5 6.18741C3.78884 6.18741 3.21429 5.68468 3.21429 5.06241C3.21429 4.44015 3.78884 3.93741 4.5 3.93741C5.21116 3.93741 5.78571 4.44015 5.78571 5.06241C5.78571 5.68468 5.21116 6.18741 4.5 6.18741Z" fill="#B5B5B5"/>
</svg>
