<svg width="40" height="13" viewBox="0 0 40 13" fill="none" xmlns="http://www.w3.org/2000/svg">
<path d="M20.6868 4.12936C20.664 5.92871 22.2904 6.93276 23.5155 7.52978C24.7742 8.14228 25.197 8.53508 25.192 9.08289C25.1827 9.92116 24.188 10.2912 23.2572 10.3055C21.6333 10.3307 20.6891 9.8671 19.9385 9.51648L19.3535 12.2538C20.1066 12.6008 21.5011 12.9035 22.9472 12.9167C26.3417 12.9167 28.5625 11.2411 28.5745 8.64321C28.5878 5.34606 24.0139 5.16356 24.0452 3.68983C24.056 3.24296 24.4824 2.76609 25.4167 2.64484C25.8792 2.58359 27.1559 2.53672 28.6034 3.20327L29.1715 0.55487C28.3931 0.271436 27.3926 3.24249e-05 26.147 3.24249e-05C22.9521 3.24249e-05 20.7049 1.69845 20.6868 4.12936ZM34.6305 0.228154C34.0107 0.228154 33.4883 0.589712 33.2552 1.14455L28.4064 12.7222H31.7984L32.4734 10.8568H36.6183L37.0099 12.7222H39.9995L37.3906 0.228154H34.6305ZM35.105 3.60327L36.0839 8.29493H33.403L35.105 3.60327ZM16.5742 0.228311L13.9005 12.7221H17.1328L19.8052 0.227998H16.5742M11.7925 0.227998L8.42818 8.73211L7.06726 1.50142C6.90757 0.694242 6.27696 0.228154 5.57665 0.228154H0.0770303L0 0.590962C1.12905 0.835958 2.41185 1.23111 3.18902 1.65392C3.66464 1.9122 3.80027 2.13797 3.95651 2.75172L6.53414 12.7222H9.94988L15.1867 0.228154H11.7925" fill="url(#paint0_linear_171_350)"/>
<defs>
<linearGradient id="paint0_linear_171_350" x1="18.3894" y1="13.1759" x2="18.7633" y2="-0.0897997" gradientUnits="userSpaceOnUse">
<stop stop-color="#222357"/>
<stop offset="1" stop-color="#254AA5"/>
</linearGradient>
</defs>
</svg>
