<svg width="18" height="18" viewBox="0 0 18 18" fill="none" xmlns="http://www.w3.org/2000/svg">
<g clip-path="url(#clip0_123_2641)">
<path d="M17.991 9.16863C17.991 8.43117 17.9298 7.89303 17.7973 7.33496H9.17969V10.6634H14.238C14.1361 11.4906 13.5854 12.7363 12.3615 13.5734L12.3444 13.6848L15.0691 15.7475L15.2579 15.7659C16.9915 14.2013 17.991 11.8992 17.991 9.16863Z" fill="black"/>
<path d="M9.17992 17.9384C11.6581 17.9384 13.7385 17.1411 15.2581 15.7659L12.3618 13.5734C11.5867 14.1015 10.5465 14.4703 9.17992 14.4703C6.75274 14.4703 4.6927 12.9057 3.95836 10.7432L3.85072 10.7521L1.01752 12.8947L0.980469 12.9954C2.4898 15.9252 5.59009 17.9384 9.17992 17.9384Z" fill="#f51d85"/>
<path d="M3.9569 10.7431C3.76314 10.185 3.651 9.58704 3.651 8.9692C3.651 8.35129 3.76314 7.75338 3.94671 7.19531L3.94157 7.07645L1.07287 4.89941L0.979013 4.94304C0.356944 6.15886 0 7.52419 0 8.9692C0 10.4142 0.356944 11.7795 0.979013 12.9953L3.9569 10.7431Z" fill="#E75EA0"/>
<path d="M9.17992 3.46802C10.9034 3.46802 12.066 4.19551 12.7289 4.80346L15.3193 2.33196C13.7284 0.886946 11.6581 0 9.17992 0C5.59009 0 2.4898 2.01305 0.980469 4.94292L3.94816 7.19519C4.6927 5.03265 6.75274 3.46802 9.17992 3.46802Z" fill="#CB0A0A"/>
</g> 
<defs>
<clipPath id="clip0_123_2641">
<rect width="18" height="18" fill="white"/>
</clipPath>
</defs>
</svg>
