<svg width="18" height="9" viewBox="0 0 18 9" fill="none" xmlns="http://www.w3.org/2000/svg">
<path d="M5.25 9C4 9 2.9375 8.5625 2.0625 7.6875C1.1875 6.8125 0.75 5.75 0.75 4.5C0.75 3.25 1.1875 2.1875 2.0625 1.3125C2.9375 0.4375 4 0 5.25 0C6.2625 0 7.147 0.28425 7.9035 0.85275C8.6595 1.42175 9.1875 2.1375 9.4875 3H17.25V6H15.75V9H12.75V6H9.4875C9.1875 6.8625 8.6595 7.57825 7.9035 8.14725C7.147 8.71575 6.2625 9 5.25 9ZM5.25 6C5.6625 6 6.0155 5.853 6.309 5.559C6.603 5.2655 6.75 4.9125 6.75 4.5C6.75 4.0875 6.603 3.73425 6.309 3.44025C6.0155 3.14675 5.6625 3 5.25 3C4.8375 3 4.4845 3.14675 4.191 3.44025C3.897 3.73425 3.75 4.0875 3.75 4.5C3.75 4.9125 3.897 5.2655 4.191 5.559C4.4845 5.853 4.8375 6 5.25 6Z" fill="#727272"/>
</svg>
