<svg width="18" height="18" viewBox="0 0 18 18" fill="none" xmlns="http://www.w3.org/2000/svg">
<path d="M4.02911 15.7501H0.297321V5.2349H4.02911V15.7501ZM2.16121 3.80053C0.967902 3.80053 0 2.93568 0 1.89154C8.54116e-09 1.39 0.227698 0.909007 0.633002 0.554365C1.03831 0.199724 1.58802 0.000488281 2.16121 0.000488281C2.73439 0.000488281 3.2841 0.199724 3.68941 0.554365C4.09471 0.909007 4.32241 1.39 4.32241 1.89154C4.32241 2.93568 3.35411 3.80053 2.16121 3.80053ZM17.996 15.7501H14.2722V10.6314C14.2722 9.41146 14.2441 7.84701 12.332 7.84701C10.3918 7.84701 10.0945 9.1724 10.0945 10.5435V15.7501H6.3667V5.2349H9.9458V6.66928H9.99804C10.4963 5.84311 11.7133 4.97123 13.5289 4.97123C17.3057 4.97123 18 7.1474 18 9.97396V15.7501H17.996Z" fill="#E75EA0"/>
</svg>
