<svg width="14" height="14" viewBox="0 0 14 14" fill="none" xmlns="http://www.w3.org/2000/svg">
<path d="M12.7559 2.28848L7.50586 0.100978C7.34594 0.0346366 7.1745 0.000488281 7.00137 0.000488281C6.82823 0.000488281 6.6568 0.0346366 6.49688 0.100978L1.24687 2.28848C0.757422 2.49082 0.4375 2.96934 0.4375 3.49981C0.4375 8.92754 3.56836 12.6791 6.49414 13.8986C6.8168 14.0326 7.18047 14.0326 7.50312 13.8986C9.84648 12.9225 13.5625 9.55098 13.5625 3.49981C13.5625 2.96934 13.2426 2.49082 12.7559 2.28848ZM7.00273 12.2033L7 1.78535L11.8098 3.78965C11.7195 7.92949 9.56484 10.9291 7.00273 12.2033Z" fill="#727272"/>
</svg>
