<svg width="18" height="18" viewBox="0 0 18 18" fill="none" xmlns="http://www.w3.org/2000/svg">
<g clip-path="url(#clip0_123_2622)">
<path d="M3.78509 11.3427C3.78509 12.3855 2.94226 13.2285 1.89938 13.2285C0.856508 13.2285 0.0136719 12.3855 0.0136719 11.3427C0.0136719 10.2999 0.856508 9.45703 1.89945 9.45703H3.78502V11.3427L3.78509 11.3427ZM4.72798 11.3427C4.72798 10.2999 5.57082 9.45703 6.6137 9.45703C7.65657 9.45703 8.49941 10.2999 8.49941 11.3427V16.057C8.49941 17.0999 7.65657 17.9428 6.61362 17.9428C5.57089 17.9428 4.72798 17.0999 4.72798 16.057V11.3427V11.3427Z" fill="black"/>
<path d="M6.6143 3.77142C5.57142 3.77142 4.72852 2.92859 4.72852 1.88571C4.72852 0.842836 5.57149 0 6.6143 0C7.6571 0 8.50001 0.842836 8.50001 1.88571V3.77149H6.61423L6.6143 3.77142ZM6.6143 4.72859C7.65717 4.72859 8.50001 5.57142 8.50001 6.6143C8.50001 7.65717 7.65717 8.50001 6.61423 8.50001H1.88578C0.842836 8.50001 0 7.65717 0 6.61423C0 5.57149 0.842836 4.72859 1.88571 4.72859H6.61423H6.6143Z" fill="#bd1164"/>
<path d="M14.1713 6.6143C14.1713 5.57142 15.0142 4.72852 16.057 4.72852C17.0999 4.72852 17.9428 5.57142 17.9428 6.6143C17.9428 7.65717 17.0999 8.50001 16.057 8.50001H14.1713V6.61423V6.6143ZM13.2285 6.6143C13.2285 7.65717 12.3855 8.50001 11.3427 8.50001C10.2999 8.50001 9.45703 7.65717 9.45703 6.61423V1.88578C9.45703 0.842836 10.2999 0 11.3427 0C12.3855 0 13.2284 0.842836 13.2284 1.88571V6.61423L13.2285 6.6143Z" fill="#f51d85"/>
<path d="M11.3427 14.1713C12.3855 14.1713 13.2285 15.0142 13.2285 16.057C13.2285 17.0999 12.3855 17.9428 11.3427 17.9428C10.2999 17.9428 9.45703 17.0999 9.45703 16.057V14.1713H11.3427H11.3427ZM11.3427 13.2285C10.2999 13.2285 9.45703 12.3855 9.45703 11.3427C9.45703 10.2999 10.2999 9.45703 11.3427 9.45703H16.0713C17.1141 9.45703 17.957 10.2999 17.957 11.3427C17.957 12.3855 17.1141 13.2285 16.0713 13.2285H11.3427H11.3427Z" fill="#E75EA0"/>
</g>
<defs>
<clipPath id="clip0_123_2622">
<rect width="18" height="18" fill="white"/>
</clipPath>
</defs>
</svg>
