<svg width="84" height="83" viewBox="0 0 84 83" fill="none" xmlns="http://www.w3.org/2000/svg">
<path d="M83.5 41.5C83.5 64.4198 64.9198 83 42 83C19.0802 83 0.5 64.4198 0.5 41.5C0.5 18.5802 19.0802 0 42 0C64.9198 0 83.5 18.5802 83.5 41.5ZM9.464 41.5C9.464 59.4691 24.0309 74.036 42 74.036C59.9691 74.036 74.536 59.4691 74.536 41.5C74.536 23.5309 59.9691 8.964 42 8.964C24.0309 8.964 9.464 23.5309 9.464 41.5Z" fill="#B6E4E0"/>
<path d="M42 3.01818C42 1.35128 43.3532 -0.0114279 45.0157 0.109665C53.8002 0.749513 62.1832 4.17193 68.9253 9.92025C76.4353 16.3234 81.4175 25.1933 82.978 34.9383C84.5384 44.6833 82.5749 54.6654 77.4398 63.0934C72.3046 71.5213 64.334 77.8434 54.9583 80.925C45.5827 84.0066 35.4156 83.6461 26.2818 79.9082C17.1479 76.1702 9.64511 69.2995 5.11981 60.529C0.59452 51.7585 -0.657047 41.6623 1.58971 32.0523C3.60671 23.4251 8.32459 15.6966 15.0165 9.9699C16.283 8.88611 18.1808 9.18026 19.1697 10.5221L20.9582 12.9488C21.9471 14.2907 21.65 16.1702 20.4057 17.2794C15.4359 21.7102 11.9298 27.5822 10.403 34.1128C8.6462 41.6269 9.62481 49.5212 13.1632 56.3789C16.7015 63.2366 22.568 68.6088 29.7098 71.5316C36.8516 74.4543 44.8013 74.7362 52.1322 72.3267C59.4631 69.9171 65.6954 64.9739 69.7106 58.384C73.7258 51.7941 75.261 43.989 74.0409 36.3694C72.8208 28.7497 68.9251 21.8142 63.053 16.8076C57.9495 12.4563 51.6433 9.80943 45.014 9.19112C43.3543 9.03632 42 7.69961 42 6.03272V3.01818Z" fill="#0AA699"/>
<path d="M64.909 42.4545C64.909 54.8558 54.8558 64.909 42.4545 64.909C30.0532 64.909 20 54.8558 20 42.4545C20 30.0532 30.0532 20 42.4545 20C54.8558 20 64.909 30.0532 64.909 42.4545ZM27.6794 42.4545C27.6794 50.6146 34.2945 57.2296 42.4545 57.2296C50.6146 57.2296 57.2296 50.6146 57.2296 42.4545C57.2296 34.2945 50.6146 27.6794 42.4545 27.6794C34.2945 27.6794 27.6794 34.2945 27.6794 42.4545Z" fill="#B6E4E0"/>
<path d="M42.4545 22.5662C42.4545 21.1489 43.6072 19.9848 45.0152 20.1465C48.7171 20.5714 52.2695 21.9129 55.3428 24.0671C59.1193 26.7142 61.9892 30.4599 63.5623 34.7951C65.1354 39.1303 65.3355 43.8448 64.1354 48.2977C62.9353 52.7506 60.3932 56.7261 56.8546 59.6836C53.316 62.6412 48.9526 64.4375 44.3573 64.8283C39.7621 65.2191 35.158 64.1855 31.1708 61.868C27.1835 59.5504 24.0066 56.0614 22.0717 51.8751C20.4972 48.4683 19.8073 44.7342 20.0461 41.0157C20.1369 39.6013 21.4871 38.6735 22.8819 38.925L25.5211 39.4009C26.9159 39.6525 27.8186 40.9915 27.8142 42.4088C27.8076 44.5351 28.2643 46.648 29.1649 48.5967C30.4265 51.3262 32.4978 53.6011 35.0975 55.1121C37.6972 56.6231 40.6991 57.297 43.6952 57.0422C46.6912 56.7874 49.5362 55.6162 51.8434 53.6879C54.1506 51.7596 55.808 49.1676 56.5905 46.2643C57.3729 43.361 57.2425 40.2871 56.2168 37.4606C55.1911 34.634 53.32 32.1918 50.8577 30.4659C49.0997 29.2337 47.1014 28.4093 45.0077 28.0385C43.6121 27.7913 42.4545 26.6652 42.4545 25.2479V22.5662Z" fill="#0AA699"/>
<path d="M33.9301 42.612H37.9621V41.868H33.9301V42.612ZM40.4822 44.256L42.9902 41.268C43.4942 40.668 43.8782 39.912 43.8782 39.252C43.8782 37.896 42.9062 37.008 41.5022 37.008C40.2542 37.008 39.3302 37.692 39.1382 38.796L39.8222 38.964C39.9662 38.208 40.6262 37.74 41.5022 37.74C42.4502 37.74 43.1102 38.34 43.1102 39.252C43.1102 39.72 42.7742 40.344 42.3062 40.92L39.1862 44.676V45H43.9742V44.256H40.4822ZM46.5888 39.996C47.4408 39.996 48.1248 39.324 48.1248 38.46C48.1248 37.608 47.4408 36.924 46.5888 36.924C45.7248 36.924 45.0648 37.608 45.0648 38.46C45.0648 39.324 45.7248 39.996 46.5888 39.996ZM46.0248 45H46.6128L50.4408 37.104H49.8648L46.0248 45ZM46.5888 39.396C46.0608 39.396 45.6528 39 45.6528 38.46C45.6528 37.944 46.0608 37.524 46.5888 37.524C47.1048 37.524 47.5368 37.944 47.5368 38.46C47.5368 39 47.1048 39.396 46.5888 39.396ZM49.9488 45.12C50.8008 45.12 51.4968 44.448 51.4968 43.584C51.4968 42.732 50.8008 42.048 49.9488 42.048C49.0848 42.048 48.4248 42.732 48.4248 43.584C48.4248 44.448 49.0848 45.12 49.9488 45.12ZM49.9488 44.52C49.4208 44.52 49.0248 44.112 49.0248 43.584C49.0248 43.068 49.4208 42.648 49.9488 42.648C50.4648 42.648 50.8968 43.068 50.8968 43.584C50.8968 44.112 50.4648 44.52 49.9488 44.52Z" fill="#53596F"/>
</svg>
