<svg width="55" height="56" viewBox="0 0 55 56" fill="none" xmlns="http://www.w3.org/2000/svg">
<circle cx="27.5" cy="28" r="27.5" fill="#B6E4E0"/>
<path d="M27.5 4.5C27.5 2.29086 29.3002 0.470176 31.486 0.790388C35.6383 1.39868 39.6148 2.95223 43.0999 5.35285C47.6882 8.51339 51.2083 12.9931 53.194 18.1987C55.1798 23.4043 55.5375 29.0903 54.2199 34.5037C53.219 38.6156 51.2875 42.4228 48.5953 45.642C47.178 47.3367 44.6226 47.1775 43.1513 45.5296L41.9137 44.1435C40.4424 42.4956 40.6323 39.9857 41.9072 38.1816C43.1818 36.378 44.1134 34.3412 44.6413 32.1723C45.4866 28.6994 45.2571 25.0518 43.9832 21.7123C42.7093 18.3728 40.4511 15.499 37.5076 13.4714C35.6693 12.2051 33.6179 11.3063 31.4659 10.8098C29.3133 10.3131 27.5 8.56736 27.5 6.35822V4.5Z" fill="#0AA699"/>
<circle cx="27.5" cy="28" r="18.5" fill="white"/>
<path d="M22.53 27.46C23.07 27.21 23.41 26.68 23.41 26.06C23.41 25.03 22.64 24.34 21.49 24.34C20.76 24.34 20.06 24.72 19.73 25.28L20.19 25.64C20.44 25.23 20.96 24.95 21.48 24.95C22.25 24.95 22.77 25.4 22.77 26.07C22.77 26.74 22.29 27.2 21.57 27.2H20.93V27.76H21.6C22.46 27.76 23.1 28.32 23.1 29.15C23.1 29.95 22.38 30.48 21.43 30.48C20.78 30.48 20.2 30.1 19.9 29.49L19.37 29.78C19.74 30.59 20.54 31.09 21.45 31.09C22.78 31.09 23.74 30.31 23.74 29.13C23.74 28.3 23.23 27.66 22.53 27.46ZM27.2027 26.88C26.6827 26.88 26.1227 27.05 25.6527 27.33L26.0827 25.03H28.8627V24.42H25.5627L24.9827 27.68L25.3527 28.01C25.9027 27.68 26.5427 27.45 27.0927 27.45C27.9827 27.45 28.6627 28.04 28.6627 28.94C28.6627 29.87 27.9527 30.49 27.0027 30.49C26.2027 30.49 25.6027 30.04 25.2827 29.43L24.7527 29.72C25.1727 30.53 25.9827 31.1 27.0427 31.1C28.3327 31.1 29.3027 30.24 29.3027 28.93C29.3027 27.69 28.4227 26.88 27.2027 26.88ZM31.4113 26.83C32.1213 26.83 32.6913 26.27 32.6913 25.55C32.6913 24.84 32.1213 24.27 31.4113 24.27C30.6913 24.27 30.1413 24.84 30.1413 25.55C30.1413 26.27 30.6913 26.83 31.4113 26.83ZM30.9413 31H31.4313L34.6213 24.42H34.1413L30.9413 31ZM31.4113 26.33C30.9713 26.33 30.6313 26 30.6313 25.55C30.6313 25.12 30.9713 24.77 31.4113 24.77C31.8413 24.77 32.2013 25.12 32.2013 25.55C32.2013 26 31.8413 26.33 31.4113 26.33ZM34.2113 31.1C34.9212 31.1 35.5013 30.54 35.5013 29.82C35.5013 29.11 34.9212 28.54 34.2113 28.54C33.4913 28.54 32.9413 29.11 32.9413 29.82C32.9413 30.54 33.4913 31.1 34.2113 31.1ZM34.2113 30.6C33.7713 30.6 33.4413 30.26 33.4413 29.82C33.4413 29.39 33.7713 29.04 34.2113 29.04C34.6413 29.04 35.0013 29.39 35.0013 29.82C35.0013 30.26 34.6413 30.6 34.2113 30.6Z" fill="#53596F"/>
</svg>
