<svg width="55" height="56" viewBox="0 0 55 56" fill="none" xmlns="http://www.w3.org/2000/svg">
<circle cx="27.5" cy="28" r="27.5" fill="#B6E4E0"/>
<path d="M27.5 4.5C27.5 2.29086 29.3002 0.470166 31.486 0.790375C36.0322 1.45637 40.3617 3.25468 44.0633 6.04764C48.8348 9.64778 52.3034 14.7045 53.9439 20.4523C55.5845 26.2 55.3077 32.3258 53.1554 37.9022C51.0031 43.4785 47.0925 48.2018 42.0158 51.3569C36.939 54.5119 30.9725 55.927 25.0196 55.3879C19.0666 54.8488 13.4514 52.3847 9.02413 48.3689C4.59682 44.3531 1.59848 39.0041 0.483062 33.1318C-0.382273 28.5761 -0.0778127 23.8979 1.33789 19.5267C2.01857 17.4251 4.44813 16.6171 6.42894 17.5952L8.09509 18.4179C10.0759 19.396 10.8384 21.7949 10.3306 23.9449C9.76466 26.3411 9.70314 28.8442 10.1681 31.2921C10.8837 35.0593 12.8072 38.4908 15.6474 41.067C18.4876 43.6433 22.0898 45.224 25.9087 45.5699C29.7277 45.9157 33.5553 45.0079 36.8121 42.9839C40.069 40.9598 42.5777 37.9298 43.9584 34.3524C45.3391 30.7751 45.5167 26.8453 44.4643 23.158C43.4119 19.4707 41.1867 16.2267 38.1257 13.9171C36.1367 12.4164 33.8651 11.3633 31.4659 10.8098C29.3133 10.3131 27.5 8.56736 27.5 6.35822V4.5Z" fill="#0AA699"/>
<circle cx="27.5" cy="28" r="18.5" fill="white"/>
<path d="M22.93 26.68C23.4 26.43 23.7 25.99 23.7 25.41C23.7 24.52 22.96 23.84 21.9 23.84C20.84 23.84 20.11 24.52 20.11 25.41C20.11 25.99 20.41 26.43 20.87 26.68C20.04 26.97 19.52 27.7 19.52 28.56C19.52 29.73 20.52 30.6 21.9 30.6C23.27 30.6 24.28 29.73 24.28 28.55C24.28 27.7 23.74 26.97 22.93 26.68ZM21.9 24.44C22.54 24.44 23.04 24.89 23.04 25.46C23.04 26.03 22.55 26.46 21.9 26.47C21.24 26.46 20.77 26.02 20.77 25.46C20.77 24.89 21.26 24.44 21.9 24.44ZM21.9 29.99C20.93 29.99 20.19 29.35 20.19 28.51C20.19 27.67 20.93 27.03 21.9 27.01C22.85 27.01 23.61 27.67 23.61 28.52C23.61 29.34 22.89 29.99 21.9 29.99ZM27.7808 30.6C29.6408 30.6 30.1108 29.08 30.1108 27.22C30.1108 25.35 29.6408 23.84 27.7808 23.84C25.9208 23.84 25.4308 25.35 25.4308 27.22C25.4308 29.08 25.9208 30.6 27.7808 30.6ZM27.7808 29.99C26.4108 29.99 26.0708 28.73 26.0708 27.22C26.0708 25.7 26.4108 24.45 27.7808 24.45C29.1408 24.45 29.4808 25.7 29.4808 27.22C29.4808 28.73 29.1408 29.99 27.7808 29.99ZM32.378 26.33C33.088 26.33 33.658 25.77 33.658 25.05C33.658 24.34 33.088 23.77 32.378 23.77C31.658 23.77 31.108 24.34 31.108 25.05C31.108 25.77 31.658 26.33 32.378 26.33ZM31.908 30.5H32.398L35.588 23.92H35.108L31.908 30.5ZM32.378 25.83C31.938 25.83 31.598 25.5 31.598 25.05C31.598 24.62 31.938 24.27 32.378 24.27C32.808 24.27 33.168 24.62 33.168 25.05C33.168 25.5 32.808 25.83 32.378 25.83ZM35.178 30.6C35.888 30.6 36.468 30.04 36.468 29.32C36.468 28.61 35.888 28.04 35.178 28.04C34.458 28.04 33.908 28.61 33.908 29.32C33.908 30.04 34.458 30.6 35.178 30.6ZM35.178 30.1C34.738 30.1 34.408 29.76 34.408 29.32C34.408 28.89 34.738 28.54 35.178 28.54C35.608 28.54 35.968 28.89 35.968 29.32C35.968 29.76 35.608 30.1 35.178 30.1Z" fill="#53596F"/>
</svg>
