<svg width="55" height="56" viewBox="0 0 55 56" fill="none" xmlns="http://www.w3.org/2000/svg">
<circle cx="27.5" cy="28" r="27.5" fill="#B6E4E0"/>
<path d="M27.5 4.5C27.5 2.29086 29.3002 0.470188 31.486 0.790396C34.941 1.29654 38.2805 2.458 41.3205 4.22515C45.5178 6.66504 48.9943 10.1726 51.3968 14.3914C53.7993 18.6101 55.0421 23.3897 54.9989 28.2445C54.9558 33.0992 53.6282 37.8559 51.1511 42.0313C48.674 46.2067 45.1356 49.6519 40.8957 52.0168C36.6557 54.3817 31.8652 55.582 27.0111 55.4957C22.157 55.4093 17.4122 54.0395 13.259 51.5254C10.251 49.7045 7.63087 47.3303 5.53055 44.5407C4.2018 42.7758 4.9368 40.3232 6.87562 39.2643L7.72253 38.8018C9.66135 37.7428 12.0634 38.4946 13.5129 40.1617C14.77 41.6074 16.2489 42.8557 17.9016 43.8561C20.7008 45.5506 23.8988 46.4739 27.1705 46.5321C30.4422 46.5902 33.6709 45.7813 36.5287 44.1873C39.3864 42.5934 41.7712 40.2713 43.4408 37.4571C45.1104 34.6429 46.0052 31.4368 46.0343 28.1648C46.0634 24.8927 45.2257 21.6712 43.6064 18.8278C41.9871 15.9843 39.644 13.6202 36.815 11.9757C35.1448 11.0048 33.3404 10.3052 31.4691 9.89495C29.3112 9.42188 27.5 7.67414 27.5 5.465V4.5Z" fill="#0AA699"/>
<circle cx="27.5" cy="28" r="18.5" fill="white"/>
<path d="M22.03 27.83C21.3 27.83 20.63 28.2 20.32 28.73C20.28 27.42 20.85 25.95 22.17 25.95C22.74 25.95 23.25 26.17 23.55 26.83L24.13 26.59C23.7 25.61 22.95 25.34 22.18 25.34C19.97 25.34 19.62 27.78 19.62 29.19C19.62 31.09 20.44 32.1 21.96 32.1C23.47 32.1 24.22 30.99 24.22 29.95C24.22 28.81 23.33 27.83 22.03 27.83ZM21.92 31.48C21.06 31.47 20.32 30.89 20.32 29.81C20.36 28.88 21.25 28.44 22.01 28.44C22.92 28.45 23.56 29.11 23.56 29.94C23.56 30.78 22.91 31.48 21.92 31.48ZM27.6813 27.88C27.1613 27.88 26.6013 28.05 26.1313 28.33L26.5613 26.03H29.3413V25.42H26.0413L25.4613 28.68L25.8313 29.01C26.3813 28.68 27.0213 28.45 27.5713 28.45C28.4613 28.45 29.1413 29.04 29.1413 29.94C29.1413 30.87 28.4313 31.49 27.4813 31.49C26.6813 31.49 26.0813 31.04 25.7613 30.43L25.2313 30.72C25.6513 31.53 26.4613 32.1 27.5213 32.1C28.8113 32.1 29.7812 31.24 29.7812 29.93C29.7812 28.69 28.9013 27.88 27.6813 27.88ZM31.8898 27.83C32.5998 27.83 33.1698 27.27 33.1698 26.55C33.1698 25.84 32.5998 25.27 31.8898 25.27C31.1698 25.27 30.6198 25.84 30.6198 26.55C30.6198 27.27 31.1698 27.83 31.8898 27.83ZM31.4198 32H31.9098L35.0998 25.42H34.6198L31.4198 32ZM31.8898 27.33C31.4498 27.33 31.1098 27 31.1098 26.55C31.1098 26.12 31.4498 25.77 31.8898 25.77C32.3198 25.77 32.6798 26.12 32.6798 26.55C32.6798 27 32.3198 27.33 31.8898 27.33ZM34.6898 32.1C35.3998 32.1 35.9798 31.54 35.9798 30.82C35.9798 30.11 35.3998 29.54 34.6898 29.54C33.9698 29.54 33.4198 30.11 33.4198 30.82C33.4198 31.54 33.9698 32.1 34.6898 32.1ZM34.6898 31.6C34.2498 31.6 33.9198 31.26 33.9198 30.82C33.9198 30.39 34.2498 30.04 34.6898 30.04C35.1198 30.04 35.4798 30.39 35.4798 30.82C35.4798 31.26 35.1198 31.6 34.6898 31.6Z" fill="#53596F"/>
</svg>
