<svg width="16" height="18" viewBox="0 0 16 18" fill="none" xmlns="http://www.w3.org/2000/svg">
<path d="M12.9297 2.94612C12.0719 2.08831 10.6797 2.08831 9.82187 2.94612L3.35313 9.41487C1.87305 10.8949 1.87305 13.2926 3.35313 14.7727C4.8332 16.2528 7.23086 16.2528 8.71094 14.7727L14.0547 9.42893C14.4379 9.04573 15.0637 9.04573 15.4469 9.42893C15.8301 9.81213 15.8301 10.4379 15.4469 10.8211L10.1031 16.1649C7.85312 18.4149 4.21094 18.4149 1.96094 16.1649C-0.289062 13.9149 -0.289062 10.2727 1.96094 8.02268L8.42969 1.55393C10.0574 -0.0738037 12.6941 -0.0738037 14.3219 1.55393C15.9496 3.18166 15.9496 5.81838 14.3219 7.44612L8.13437 13.6336C7.12891 14.6391 5.49766 14.6391 4.49219 13.6336C3.48672 12.6281 3.48672 10.9969 4.49219 9.99143L9.55469 4.92893C9.93789 4.54573 10.5637 4.54573 10.9469 4.92893C11.3301 5.31213 11.3301 5.93791 10.9469 6.32112L5.88438 11.3836C5.64883 11.6192 5.64883 12.0059 5.88438 12.2414C6.11992 12.477 6.50664 12.477 6.74219 12.2414L12.9297 6.05393C13.7875 5.19612 13.7875 3.80393 12.9297 2.94612Z" fill="#A099A5"/>
</svg>
