<svg width="40" height="40" viewBox="0 0 40 40" fill="none" xmlns="http://www.w3.org/2000/svg">
<circle cx="20" cy="20" r="20" fill="#181818"/>
<g clip-path="url(#clip0_124_6532)">
<path d="M13.1065 14.5012C13.287 14.1184 13.6698 13.875 14.0936 13.875H25.9061C26.3299 13.875 26.7127 14.1184 26.8932 14.5012C27.0737 14.884 27.019 15.3352 26.751 15.6633L21.7499 21.7746V25.25C21.7499 25.5809 21.5639 25.8844 21.2659 26.032C20.9678 26.1797 20.6151 26.1496 20.3499 25.95L18.5999 24.6375C18.3784 24.4734 18.2499 24.2137 18.2499 23.9375V21.7746L13.246 15.6605C12.9807 15.3352 12.9233 14.8812 13.1065 14.5012Z" fill="#E8565B"/>
</g>
<defs>
<clipPath id="clip0_124_6532">
<rect width="14" height="14" fill="white" transform="translate(13 13)"/>
</clipPath>
</defs>
</svg>
