<svg width="40" height="40" viewBox="0 0 40 40" fill="none" xmlns="http://www.w3.org/2000/svg">
<circle cx="20" cy="20" r="20" fill="#F7FAF9"/>
<path d="M20 16.625C20.6213 16.625 21.125 16.1213 21.125 15.5C21.125 14.8787 20.6213 14.375 20 14.375C19.3787 14.375 18.875 14.8787 18.875 15.5C18.875 16.1213 19.3787 16.625 20 16.625Z" fill="#0AA699"/>
<path d="M20 21.125C20.6213 21.125 21.125 20.6213 21.125 20C21.125 19.3787 20.6213 18.875 20 18.875C19.3787 18.875 18.875 19.3787 18.875 20C18.875 20.6213 19.3787 21.125 20 21.125Z" fill="#0AA699"/>
<path d="M20 25.625C20.6213 25.625 21.125 25.1213 21.125 24.5C21.125 23.8787 20.6213 23.375 20 23.375C19.3787 23.375 18.875 23.8787 18.875 24.5C18.875 25.1213 19.3787 25.625 20 25.625Z" fill="#0AA699"/>
</svg>
